Coordinates
version=1
nRows=71
nColumns=11
inDegrees=no

Units are S.I. units (second, meters, Newtons, ...)
If the header above contains a line with 'inDegrees', this indicates whether rotational values are in degrees (yes) or radians (no).

endheader
time	pelvis_tilt	pelvis_tx	pelvis_ty	hip_flexion_r	knee_angle_r	ankle_angle_r	hip_flexion_l	knee_angle_l	ankle_angle_l	lumbar_extension
315.01	-0.0221813	-0.0367465	0.940019	0.458582	-0.850734	0.0637404	0.0476335	-0.232364	0.228999	0
315.02	-0.0269988	-0.0386552	0.938539	0.470836	-0.790244	0.0512063	0.0352498	-0.224931	0.238579	0
315.03	-0.0253274	-0.0389311	0.937423	0.468441	-0.721792	0.0474143	0.00802735	-0.205623	0.249301	0
315.04	-0.0258922	-0.0394222	0.935959	0.468353	-0.651428	0.0365767	-0.015411	-0.18863	0.258921	0
315.05	-0.0267995	-0.0397104	0.934222	0.466283	-0.578261	0.0224719	-0.0380733	-0.172908	0.266742	0
315.06	-0.0281219	-0.0399583	0.932102	0.462551	-0.50247	0.00351984	-0.0583785	-0.161768	0.275789	0
315.07	-0.0285699	-0.0399909	0.929667	0.456127	-0.425576	-0.0127204	-0.0785457	-0.153149	0.285889	0
315.08	-0.0283694	-0.0396719	0.926945	0.448095	-0.352416	-0.015441	-0.0988684	-0.146136	0.298364	0
315.09	-0.0291637	-0.0394407	0.924044	0.444824	-0.289651	-0.0108939	-0.116293	-0.141131	0.310893	0
315.1	-0.0293599	-0.0391002	0.921198	0.442787	-0.232877	-0.000275106	-0.132529	-0.140384	0.325762	0
315.11	-0.0297319	-0.038612	0.918249	0.441977	-0.180989	0.0188222	-0.1478	-0.14222	0.342169	0
315.12	-0.00836258	-0.0348882	0.91665	0.413255	-0.133317	0.0465092	-0.190125	-0.147721	0.358775	0
315.13	-0.0287539	-0.0367128	0.912435	0.438694	-0.0903591	0.0655523	-0.179623	-0.147176	0.361762	0
315.14	-0.0302357	-0.0362944	0.909667	0.439367	-0.0526087	0.0729915	-0.191112	-0.154222	0.370355	0
315.15	-0.0107058	-0.0329249	0.908264	0.412895	-0.0217409	0.083514	-0.229303	-0.163515	0.384634	0
315.16	-0.00735876	-0.031451	0.906203	0.410111	-0.00678071	0.0906755	-0.24578	-0.173045	0.392189	0
315.17	-0.00603571	-0.0302729	0.904335	0.414976	-0.0121648	0.0942877	-0.256471	-0.18859	0.393401	0
315.18	-0.00641244	-0.0293151	0.902579	0.425036	-0.0318617	0.0907739	-0.263867	-0.205859	0.394197	0
315.19	-0.00740342	-0.0287352	0.901153	0.438252	-0.063671	0.0809284	-0.26967	-0.223771	0.393217	0
315.2	-0.00727183	-0.0280353	0.900016	0.448218	-0.0990676	0.0643776	-0.276671	-0.241196	0.388796	0
315.21	-0.00290032	-0.026364	0.899207	0.450821	-0.135153	0.0426047	-0.285355	-0.266774	0.382934	0
315.22	-0.00648113	-0.0254612	0.897927	0.458839	-0.1659	0.0227396	-0.284575	-0.291525	0.370219	0
315.23	-0.00462582	-0.0235184	0.897136	0.459346	-0.195104	0.00554235	-0.289305	-0.317474	0.351941	0
315.24	-0.00265078	-0.0216729	0.896634	0.461466	-0.226128	-0.0134724	-0.289979	-0.349981	0.329965	0
315.25	-0.000413779	-0.0197474	0.896471	0.467012	-0.265847	-0.0262622	-0.288736	-0.385813	0.305612	0
315.26	0.00445765	-0.016832	0.896573	0.472371	-0.313179	-0.0240893	-0.286566	-0.426847	0.274724	0
315.27	0.00436208	-0.0157673	0.897168	0.481765	-0.361194	-0.0117932	-0.274408	-0.47337	0.233125	0
315.28	0.00611816	-0.0139871	0.898134	0.486073	-0.404311	0.00431292	-0.257653	-0.527112	0.180268	0
315.29	0.00739704	-0.0125409	0.899438	0.485933	-0.437642	0.0150336	-0.236129	-0.585224	0.12109	0
315.3	0.00878722	-0.0112071	0.900794	0.47954	-0.460248	0.0285708	-0.211645	-0.645312	0.0600345	0
315.31	0.0101504	-0.00996974	0.901901	0.467961	-0.474576	0.0545185	-0.183138	-0.709911	0.00111551	0
315.32	0.00912662	-0.00930796	0.902968	0.459925	-0.489945	0.0784112	-0.146924	-0.779659	-0.0603363	0
315.33	-0.00493008	-0.0104305	0.903332	0.467146	-0.499729	0.0962055	-0.0903358	-0.849342	-0.130041	0
315.34	-0.00269669	-0.00944929	0.904642	0.450529	-0.506156	0.119446	-0.0580983	-0.907986	-0.201911	0
315.35	-0.00101189	-0.00889835	0.906007	0.435876	-0.513973	0.138653	-0.0245258	-0.961643	-0.263986	0
315.36	0.00117932	-0.00868554	0.907823	0.419158	-0.516444	0.152238	0.00773528	-1.01001	-0.299317	0
315.37	0.0166587	-0.00630634	0.910952	0.383054	-0.516466	0.164762	0.0187855	-1.05079	-0.30018	0
315.38	0.0149682	-0.00728933	0.913007	0.36841	-0.513721	0.173423	0.058549	-1.10131	-0.269763	0
315.39	-0.000106424	-0.0111994	0.914309	0.368151	-0.504346	0.179289	0.118602	-1.15264	-0.226953	0
315.4	0.00143317	-0.0115511	0.917033	0.345887	-0.495178	0.188257	0.149028	-1.18365	-0.182245	0
315.41	0.0148234	-0.0097188	0.920849	0.309309	-0.489218	0.194696	0.157956	-1.19776	-0.146982	0
315.42	0.0032003	-0.0127644	0.922635	0.303374	-0.475608	0.201021	0.208117	-1.21986	-0.121586	0
315.43	0.0182596	-0.0106857	0.926267	0.263205	-0.466368	0.20763	0.214734	-1.22169	-0.102722	0
315.44	0.0197219	-0.0113702	0.929041	0.236571	-0.448413	0.214048	0.241252	-1.22302	-0.0853082	0
315.45	0.0173181	-0.0135194	0.931094	0.218083	-0.433454	0.2163	0.274611	-1.22379	-0.0706286	0
315.46	0.00213824	-0.0176324	0.932289	0.215051	-0.414794	0.220538	0.325564	-1.22288	-0.0562597	0
315.47	0.00276902	-0.0185662	0.934517	0.191309	-0.397385	0.223923	0.348786	-1.20796	-0.0461286	0
315.48	0.00138891	-0.0201879	0.93629	0.171218	-0.38124	0.223598	0.373404	-1.18802	-0.0363841	0
315.49	0.0182443	-0.0189703	0.939171	0.125932	-0.366212	0.226981	0.367194	-1.15632	-0.0259396	0
315.5	0.0199223	-0.0201182	0.940644	0.100683	-0.348718	0.228941	0.382853	-1.12347	-0.0169753	0
315.51	0.017401	-0.0220683	0.941597	0.0825575	-0.333697	0.229519	0.403046	-1.08702	-0.0121759	0
315.52	-0.000731994	-0.0266418	0.941138	0.0850059	-0.315419	0.229406	0.44468	-1.04927	-0.00736784	0
315.53	-0.00086421	-0.028139	0.941495	0.0660373	-0.304425	0.233832	0.457719	-1.00508	-0.00188181	0
315.54	-0.00334562	-0.0300064	0.941232	0.0500461	-0.293204	0.237867	0.472577	-0.958042	0.00543821	0
315.55	-0.00555827	-0.0320069	0.940807	0.0337588	-0.283889	0.245423	0.482863	-0.903764	0.0114502	0
315.56	-0.00697689	-0.0338674	0.940283	0.0159759	-0.274447	0.251714	0.488372	-0.843553	0.0149314	0
315.57	-0.00921964	-0.0353317	0.939354	0.00016219	-0.267181	0.25873	0.494887	-0.784098	0.0225435	0
315.58	-0.01103	-0.0365022	0.937993	-0.0176862	-0.256883	0.266596	0.499591	-0.722731	0.0258245	0
315.59	-0.0129132	-0.0377429	0.936314	-0.0359693	-0.245308	0.272878	0.50089	-0.655016	0.0308618	0
315.6	-0.0142715	-0.0388661	0.934486	-0.0547081	-0.234454	0.281399	0.49686	-0.579885	0.0357111	0
315.61	-0.0160753	-0.0398734	0.932147	-0.072123	-0.225844	0.29311	0.490439	-0.499477	0.0415874	0
315.62	-0.0176851	-0.0404704	0.929626	-0.0897376	-0.217567	0.302211	0.485453	-0.423465	0.0418701	0
315.63	-0.0185853	-0.0406527	0.926858	-0.109078	-0.208201	0.309956	0.478371	-0.346844	0.0430385	0
315.64	-0.0179856	-0.0405545	0.923917	-0.131869	-0.196137	0.316863	0.467334	-0.268733	0.0471805	0
315.65	-0.0171746	-0.0402555	0.920718	-0.154929	-0.185239	0.329514	0.457265	-0.19635	0.0538708	0
315.66	0.00397608	-0.0368506	0.918937	-0.20309	-0.178647	0.345027	0.424448	-0.136208	0.0686554	0
315.67	-0.0165134	-0.0390155	0.914321	-0.19837	-0.16695	0.348902	0.446567	-0.0832797	0.0811008	0
315.68	-1.77062e-05	-0.0369433	0.912001	-0.236468	-0.169174	0.361386	0.426448	-0.049491	0.097018	0
315.69	-0.0194957	-0.0394216	0.907528	-0.229788	-0.165135	0.360708	0.454057	-0.0259119	0.102934	0
315.7	-0.00150656	-0.0364242	0.905908	-0.267992	-0.168693	0.369029	0.432896	-0.0139137	0.11444	0
315.71	-0.000666159	-0.0357243	0.903267	-0.283081	-0.173887	0.375423	0.435425	-0.0169053	0.121949	0
